<svg width="82" height="48" viewBox="0 0 82 48" fill="none" xmlns="http://www.w3.org/2000/svg">
<path d="M28.7955 0.454544H38.6364V30.6818C38.6364 34.0758 37.8258 37.0455 36.2045 39.5909C34.5985 42.1364 32.3485 44.1212 29.4545 45.5455C26.5606 46.9545 23.1894 47.6591 19.3409 47.6591C15.4773 47.6591 12.0985 46.9545 9.20455 45.5455C6.31061 44.1212 4.06061 42.1364 2.45455 39.5909C0.848485 37.0455 0.0454545 34.0758 0.0454545 30.6818V0.454544H9.88636V29.8409C9.88636 31.6136 10.2727 33.1894 11.0455 34.5682C11.8333 35.947 12.9394 37.0303 14.3636 37.8182C15.7879 38.6061 17.447 39 19.3409 39C21.25 39 22.9091 38.6061 24.3182 37.8182C25.7424 37.0303 26.8409 35.947 27.6136 34.5682C28.4015 33.1894 28.7955 31.6136 28.7955 29.8409V0.454544ZM46.733 47V0.454544H65.0966C68.6269 0.454544 71.6345 1.12879 74.1193 2.47727C76.6042 3.81061 78.4981 5.66667 79.8011 8.04545C81.1193 10.4091 81.7784 13.1364 81.7784 16.2273C81.7784 19.3182 81.1117 22.0455 79.7784 24.4091C78.4451 26.7727 76.5133 28.6136 73.983 29.9318C71.4678 31.25 68.4223 31.9091 64.8466 31.9091H53.142V24.0227H63.2557C65.1496 24.0227 66.7102 23.697 67.9375 23.0455C69.1799 22.3788 70.1042 21.4621 70.7102 20.2955C71.3314 19.1136 71.642 17.7576 71.642 16.2273C71.642 14.6818 71.3314 13.3333 70.7102 12.1818C70.1042 11.0151 69.1799 10.1136 67.9375 9.47727C66.6951 8.82576 65.1193 8.5 63.2102 8.5H56.5739V47H46.733Z" fill="#837BA8"/>
</svg>
